<?xml version="1.0" standalone="no"?>
<!DOCTYPE svg PUBLIC "-//W3C//DTD SVG 20010904//EN"
 "http://www.w3.org/TR/2001/REC-SVG-20010904/DTD/svg10.dtd">
<svg version="1.0" xmlns="http://www.w3.org/2000/svg"
 width="1280.000000pt" height="1031.000000pt" viewBox="0 0 1280.000000 1031.000000"
 preserveAspectRatio="xMidYMid meet">
<metadata>
Created by potrace 1.15, written by Peter Selinger 2001-2017
</metadata>
<g transform="translate(0.000000,1031.000000) scale(0.100000,-0.100000)"
fill="#0a66c2" stroke="none">
<path d="M9521 9859 c-66 -11 -161 -52 -221 -95 -222 -160 -288 -472 -151
-710 16 -28 52 -76 80 -106 l50 -55 -31 -161 -31 -162 -95 -46 c-163 -79 -280
-223 -314 -386 -8 -38 -19 -63 -30 -69 -19 -10 -547 -241 -802 -351 l-140 -60
-66 36 c-37 19 -95 43 -131 52 -74 19 -214 22 -277 5 l-43 -12 -176 158 c-297
267 -271 239 -283 313 -20 136 -113 262 -234 319 -261 124 -559 -32 -608 -318
-41 -240 144 -471 390 -488 l82 -6 221 -200 221 -200 -7 -81 c-6 -70 -11 -88
-41 -131 -155 -228 -77 -520 169 -636 l64 -29 -8 -53 c-4 -28 -17 -137 -29
-242 -11 -104 -23 -199 -25 -211 -3 -13 -29 -36 -71 -60 -130 -76 -228 -212
-264 -366 l-17 -72 -406 -189 -407 -190 -72 37 c-76 37 -189 66 -261 66 -67 0
-173 -27 -249 -62 l-70 -32 -344 172 -344 172 0 37 c-1 51 -38 157 -80 227
-19 32 -67 88 -106 125 l-71 66 9 205 9 204 45 49 c190 202 129 540 -119 662
-131 65 -254 66 -383 6 -165 -77 -265 -270 -234 -448 14 -83 36 -133 85 -197
l38 -50 -7 -130 c-3 -72 -9 -166 -12 -208 l-7 -78 -48 -31 c-118 -75 -221
-231 -242 -366 l-11 -70 -399 -196 -400 -197 -31 19 c-69 43 -186 73 -281 74
-101 0 -150 -11 -247 -55 l-66 -30 -139 71 c-76 39 -180 93 -231 118 -50 26
-92 53 -92 59 0 26 -62 132 -101 173 -94 98 -191 135 -335 129 -78 -3 -101 -8
-157 -37 -271 -133 -328 -486 -112 -690 105 -100 242 -139 388 -111 l65 12
226 -117 c196 -101 226 -119 226 -140 0 -44 47 -184 81 -240 19 -31 62 -85 97
-118 l63 -62 -6 -75 c-3 -41 -15 -174 -25 -295 -11 -121 -20 -230 -20 -242 0
-16 -11 -29 -38 -42 -138 -73 -258 -240 -285 -397 l-11 -66 -276 -135 c-261
-127 -277 -134 -310 -124 -202 59 -415 -30 -505 -212 -70 -141 -70 -253 0
-393 59 -121 174 -202 318 -226 177 -29 358 70 448 244 l34 68 272 134 273
135 44 -25 c161 -90 351 -95 523 -14 l65 30 332 -170 332 -170 11 -71 c17
-109 79 -227 165 -311 l69 -68 -17 -207 -16 -207 -49 -54 c-27 -29 -63 -83
-81 -120 -31 -63 -33 -73 -33 -177 0 -104 2 -114 32 -175 42 -86 84 -135 155
-180 217 -141 501 -63 616 169 36 73 37 78 37 185 0 101 -3 117 -28 171 -15
32 -40 75 -54 94 l-26 34 16 201 c10 111 17 206 17 212 0 6 26 27 59 47 140
87 225 221 266 420 5 26 30 41 288 167 155 75 333 163 395 193 l114 57 56 -29
c164 -83 339 -88 502 -15 32 14 63 25 67 23 5 -2 151 -82 325 -178 l315 -174
6 -56 c14 -125 77 -251 175 -346 l52 -51 -25 -213 -25 -213 -42 -38 c-158
-139 -181 -395 -53 -570 115 -157 342 -215 519 -132 155 72 247 217 247 386 0
98 -20 167 -67 237 l-36 54 22 190 c28 255 21 234 89 274 142 81 247 234 276
402 l7 37 399 184 400 185 63 -33 c87 -47 166 -65 271 -65 94 0 197 24 261 60
l30 18 226 -125 c223 -123 226 -125 238 -166 16 -57 63 -127 116 -176 144
-133 375 -146 536 -30 291 208 206 666 -141 760 -54 14 -157 15 -209 0 -40
-10 -42 -10 -263 112 l-223 123 -13 80 c-19 114 -76 226 -158 309 l-64 66 34
302 c19 167 35 310 35 318 0 8 25 28 56 44 69 36 168 133 211 206 18 30 43 93
56 140 l25 85 278 120 279 121 40 -15 c26 -10 78 -15 145 -16 97 0 110 2 171
31 159 75 250 215 251 385 1 172 -91 317 -251 393 -62 29 -73 31 -176 31 -105
0 -113 -2 -180 -34 -84 -41 -160 -114 -200 -194 l-30 -58 -277 -120 -276 -119
-79 40 c-95 49 -175 70 -264 70 -73 0 -197 -28 -256 -58 l-38 -20 -325 184
-325 184 -12 71 c-7 39 -19 93 -29 121 -21 65 -104 188 -155 230 l-39 33 45
380 c25 209 47 394 50 412 5 25 16 37 60 62 70 40 171 140 212 211 18 30 43
93 56 140 l25 84 203 89 c112 49 326 142 475 207 l272 119 78 -40 c96 -48 177
-69 265 -69 80 0 203 30 268 66 l48 26 294 -149 293 -148 12 -61 c34 -173 170
-328 344 -392 80 -30 211 -40 293 -22 206 42 389 229 419 426 5 38 12 78 14
89 3 14 74 63 223 155 l219 134 124 1 c117 0 126 1 190 32 94 44 161 110 206
202 35 73 37 80 37 181 0 85 -5 115 -23 160 -112 278 -465 359 -688 157 -52
-47 -104 -132 -123 -202 -11 -39 -20 -45 -238 -179 l-226 -139 -61 23 c-126
46 -307 35 -426 -25 l-45 -23 -291 146 -292 146 -6 47 c-16 120 -72 230 -166
324 l-54 56 33 168 33 168 37 12 c58 17 151 82 208 145 198 216 186 548 -26
749 -133 125 -294 175 -470 146z m-2 -1068 c11 -7 10 -25 -6 -112 -17 -94 -21
-104 -42 -107 -20 -3 -23 0 -18 20 3 12 14 65 23 116 10 50 20 92 23 92 3 0
12 -4 20 -9z m-2502 -3909 c82 -42 161 -62 250 -62 l72 0 -11 -31 c-6 -17 -7
-34 -2 -39 5 -5 56 -35 114 -68 l105 -59 12 36 c7 20 20 41 29 48 21 15 28 10
-78 68 -49 27 -88 52 -88 55 0 3 21 13 48 22 26 9 61 22 77 28 29 12 43 5 355
-172 l325 -184 6 -59 c13 -135 73 -253 178 -353 l45 -43 -32 -302 c-18 -166
-35 -311 -37 -322 -3 -12 -22 -29 -47 -42 -93 -45 -195 -153 -244 -258 -13
-27 -31 -82 -39 -120 l-16 -71 -267 -123 c-147 -68 -326 -151 -398 -184 l-131
-59 -74 36 c-97 47 -178 65 -283 61 -95 -3 -102 2 -65 49 12 15 20 28 18 30
-16 13 -209 116 -217 116 -17 0 -52 -51 -52 -75 0 -19 18 -33 95 -75 83 -44
110 -70 73 -70 -6 0 -37 -12 -69 -26 l-58 -26 -318 175 c-175 97 -321 182
-324 189 -4 7 -12 44 -17 83 -16 103 -77 219 -159 301 l-66 66 32 321 c18 177
33 322 34 322 44 23 106 63 131 86 19 16 36 29 38 29 4 0 -6 -119 -16 -190
l-6 -36 43 0 c23 0 49 -3 58 -7 13 -7 17 8 27 109 13 134 10 144 -48 144 l-38
0 43 64 c48 72 83 156 92 222 3 24 11 47 17 52 6 5 124 61 261 125 138 64 318
147 400 186 83 38 152 69 155 68 3 -1 33 -17 67 -35z m-3275 -20 c88 -42 145
-54 249 -54 l87 0 -8 -29 c-6 -18 -4 -31 3 -37 12 -10 214 -112 221 -112 2 0
7 12 11 28 3 15 16 37 27 49 l20 22 -96 48 c-94 46 -114 63 -78 63 9 0 40 13
69 29 l51 28 344 -171 343 -171 11 -65 c23 -128 96 -258 185 -333 l42 -34 -33
-324 c-18 -178 -36 -325 -41 -327 -4 -2 -34 -20 -66 -41 -120 -78 -219 -215
-243 -339 -6 -31 -14 -67 -18 -80 -6 -18 -86 -62 -402 -217 l-395 -194 -30 19
c-107 66 -317 99 -408 65 -24 -10 -21 6 8 49 l25 36 -115 57 c-115 57 -115 57
-135 38 -11 -11 -22 -34 -25 -50 -6 -29 -4 -31 96 -84 l101 -54 -73 -34 -74
-34 -250 127 c-137 70 -286 146 -331 170 l-81 44 -17 79 c-25 117 -76 213
-159 296 l-70 70 12 140 c6 77 18 210 26 295 8 85 14 165 15 177 0 15 11 28
33 39 17 9 57 35 87 59 l56 43 -8 -72 c-4 -39 -7 -90 -7 -113 -1 -42 0 -42 28
-37 16 3 38 1 51 -6 12 -6 23 -10 25 -8 3 2 9 55 15 118 12 130 8 140 -58 140
l-34 0 27 31 c48 57 88 151 109 256 l11 53 395 195 c217 107 397 193 400 192
3 -2 35 -17 72 -35z"/>
<path d="M6905 4794 c-66 -31 -121 -57 -123 -59 -2 -1 7 -25 20 -51 12 -27 23
-50 24 -52 3 -7 254 119 254 128 0 16 -39 90 -48 90 -4 0 -61 -25 -127 -56z"/>
<path d="M6305 4515 c-60 -30 -114 -55 -118 -57 -5 -2 2 -26 14 -53 13 -28 24
-51 25 -53 2 -4 254 118 254 123 0 17 -44 95 -54 94 -6 0 -60 -25 -121 -54z"/>
<path d="M7881 4524 c-25 -32 -36 -64 -24 -74 4 -4 56 -35 114 -68 l107 -60 5
27 c3 14 15 36 27 49 12 13 20 25 19 26 -6 5 -221 126 -225 126 -1 0 -12 -12
-23 -26z"/>
<path d="M8192 4143 c-5 -10 -12 -49 -16 -88 -4 -38 -10 -87 -13 -109 -6 -38
-6 -38 23 -32 17 4 40 0 56 -8 33 -18 31 -22 48 129 10 91 9 101 -7 112 -25
19 -81 16 -91 -4z"/>
<path d="M5916 3622 c-6 -11 -26 -167 -26 -209 0 -30 2 -32 29 -27 16 3 38 1
51 -6 12 -6 24 -10 26 -7 2 2 9 54 15 116 9 87 8 115 -1 126 -13 16 -85 21
-94 7z"/>
<path d="M8134 3582 c-11 -6 -34 -152 -34 -214 0 -25 3 -27 29 -22 16 3 38 1
51 -6 12 -6 24 -10 26 -7 2 2 10 54 16 115 9 89 9 114 -1 126 -14 16 -67 21
-87 8z"/>
<path d="M6056 3145 c-34 -52 -24 -66 90 -128 58 -32 107 -57 109 -55 1 2 10
20 20 41 9 20 21 37 26 37 5 0 9 4 9 8 0 11 -202 122 -222 122 -9 0 -23 -11
-32 -25z"/>
<path d="M7895 3121 c-22 -10 -75 -35 -118 -54 l-77 -36 22 -48 c13 -26 24
-50 25 -52 2 -2 59 22 128 54 136 64 133 60 98 128 -16 32 -25 33 -78 8z"/>
<path d="M7231 2814 c-63 -30 -117 -57 -120 -60 -3 -2 6 -26 20 -53 l24 -49
123 56 c67 31 122 62 122 70 0 18 -39 92 -48 91 -4 0 -59 -25 -121 -55z"/>
<path d="M3634 4777 l-121 -62 23 -44 c14 -25 27 -47 29 -50 8 -7 245 112 245
123 0 15 -41 96 -48 95 -4 0 -62 -28 -128 -62z"/>
<path d="M4641 4543 c-12 -14 -21 -38 -21 -52 0 -24 12 -32 114 -83 l114 -57
6 29 c3 16 14 38 26 50 l20 20 -119 60 -120 60 -20 -27z"/>
<path d="M3044 4486 l-120 -61 25 -51 26 -52 122 62 c68 33 123 65 123 70 0
16 -41 96 -48 95 -4 -1 -61 -29 -128 -63z"/>
<path d="M2673 3588 c-4 -7 -12 -64 -18 -126 l-10 -112 31 6 c18 3 42 1 54 -6
12 -6 24 -10 26 -7 2 2 9 54 15 116 8 85 7 116 -2 127 -14 17 -85 19 -96 2z"/>
<path d="M4598 3119 c-65 -32 -118 -62 -118 -64 0 -6 40 -87 47 -95 8 -8 243
115 243 128 0 18 -39 92 -48 91 -4 0 -60 -27 -124 -60z"/>
<path d="M2820 3133 c-40 -51 -27 -68 98 -133 92 -47 112 -55 112 -40 0 9 11
33 24 52 l23 35 -114 56 c-62 32 -115 57 -117 57 -3 0 -14 -12 -26 -27z"/>
<path d="M4004 2827 l-120 -62 23 -40 c12 -22 24 -44 26 -50 5 -14 247 106
247 123 0 18 -39 92 -48 91 -4 0 -61 -28 -128 -62z"/>
</g>
</svg>
